<?xml version="1.0" encoding="UTF-8"?>
<svg width="65px" height="1052px" viewBox="0 0 65 1052" version="1.1" xmlns="http://www.w3.org/2000/svg" xmlns:xlink="http://www.w3.org/1999/xlink">
    <title>prj-icon-sprite-web</title>
    <defs>
        <linearGradient x1="49.1385848%" y1="56.2836544%" x2="49.2261526%" y2="56.2836544%" id="linearGradient-1">
            <stop stop-color="#FFCC33" offset="0%"></stop>
            <stop stop-color="#FFFFFF" offset="100%"></stop>
        </linearGradient>
        <linearGradient x1="49.1385848%" y1="56.2836544%" x2="49.2261526%" y2="56.2836544%" id="linearGradient-2">
            <stop stop-color="#FFCC33" offset="0%"></stop>
            <stop stop-color="#FFFFFF" offset="100%"></stop>
        </linearGradient>
        <rect id="path-3" x="0" y="0" width="65" height="40" rx="6"></rect>
        <rect id="path-5" x="0" y="0" width="65" height="40" rx="6"></rect>
    </defs>
    <g id="prj-icon-sprite-web" stroke="none" stroke-width="1" fill="none" fill-rule="evenodd">
        <g transform="translate(0.000000, 1.000000)">
            <path d="M42.9652888,81.6656117 C42.6587502,78.382418 40.2706568,76.000393 37.2820061,76.000393 C35.2909186,76.000393 33.4678417,77.0430448 32.4420075,78.7141173 C31.4254624,77.0214293 29.6771018,76 27.7179201,76 C24.7296733,76 22.341176,78.382025 22.0350412,81.6652187 C22.0108089,81.8102389 21.9114565,82.5734616 22.2135525,83.8181198 C22.6489262,85.613383 23.6545668,87.2463336 25.121025,88.5393319 L32.437161,95 L39.8789012,88.5397249 C41.3453594,87.2463336 42.3509999,85.613776 42.7863737,83.8181198 C43.0884697,82.5738546 42.9891173,81.8106319 42.9652888,81.6656117 Z" id="Shape" stroke="#000000" stroke-width="1.2"></path>
            <path d="M22,54.1898995 L22,44.072726 C22,43.0738447 22.896325,42.2626256 24,42.2626256 L27.328125,42.2626256 L28.265625,40.1484735 C28.301656,40.0594231 28.3952176,40 28.5,40 L35.5,40 C35.6047824,40 35.698344,40.0594231 35.734375,40.1484735 L36.671875,42.2626256 L40,42.2626256 C41.103675,42.2626256 42,43.0738447 42,44.072726 L42,54.1898995 C42,55.1887809 41.103675,56 40,56 L24,56 C22.896325,56 22,55.1887809 22,54.1898995 Z M24,55.5474749 L40,55.5474749 C40.835325,55.5474749 41.5,54.9459106 41.5,54.1898995 L41.5,44.072726 C41.5,43.316715 40.835325,42.7151507 40,42.7151507 L36.5,42.7151507 C36.3971775,42.7161172 36.3041864,42.6600094 36.265625,42.5737366 L35.328125,40.4525251 L28.671875,40.4525251 L27.734375,42.5737366 C27.6958136,42.6600094 27.6028225,42.7161172 27.5,42.7151507 L24,42.7151507 C23.164675,42.7151507 22.5,43.316715 22.5,44.072726 L22.5,54.1898995 C22.5,54.9459106 23.164675,55.5474749 24,55.5474749 Z M32,52.4444452 C29.655775,52.4444452 27.75,50.7196457 27.75,48.5979817 C27.75,46.4763132 29.655775,44.7515137 32,44.7515137 C34.34425,44.7515137 36.25,46.4763132 36.25,48.5979817 C36.25,50.7196457 34.34425,52.4444452 32,52.4444452 Z M32,51.9919201 C34.07405,51.9919201 35.75,50.4750785 35.75,48.5979817 C35.75,46.7208804 34.07405,45.2040388 32,45.2040388 C29.926025,45.2040388 28.25,46.7208804 28.25,48.5979817 C28.25,50.4750785 29.926025,51.9919201 32,51.9919201 Z" id="photos" stroke="#000000" stroke-width="0.7"></path>
            <g id="Group-67" transform="translate(23.338268, 0.000000)" fill="#000000" fill-rule="nonzero" stroke="#000000" stroke-width="0.5">
                <g id="share">
                    <path d="M12.8691071,14.2132203 C12.6913214,14.3908475 12.5383035,14.5861017 12.4059821,14.7925424 L6.543125,11.2369492 C6.69817857,10.8491525 6.78605357,10.4274576 6.78605357,9.98508475 C6.78605357,9.54271186 6.69817857,9.12101695 6.54346428,8.73322034 L12.4076785,5.20474576 C13.0099107,6.14983051 14.0657678,6.77966102 15.2681964,6.77966102 C17.1390178,6.77966102 18.6610535,5.25898305 18.6610535,3.38983051 C18.6610535,1.52067797 17.1390178,0 15.2681964,0 C13.397375,0 11.8753392,1.52067797 11.8753392,3.38983051 C11.8753392,3.81559322 11.9577857,4.22169492 12.1016428,4.59728814 L6.229625,8.13050847 C5.62298214,7.20711864 4.57866071,6.59525424 3.39285714,6.59525424 C1.52203571,6.59525424 5.55111512e-17,8.1159322 5.55111512e-17,9.98508475 C5.55111512e-17,11.8542373 1.52203571,13.3749153 3.39285714,13.3749153 C4.57866071,13.3749153 5.62264285,12.7630508 6.22928571,11.839661 L12.1002857,15.4 C11.9543928,15.7816949 11.875,16.1894915 11.875,16.6101695 C11.875,17.5155932 12.2278571,18.3671186 12.8687678,19.0071186 C13.5300357,19.6677966 14.3989464,19.9983051 15.2678571,19.9983051 C16.1367678,19.9983051 17.0056785,19.6677966 17.6669464,19.0071186 C18.3078571,18.3667797 18.6607142,17.5155932 18.6607142,16.6101695 C18.6607142,15.7047458 18.3078571,14.8532203 17.6669464,14.2132203 C16.3440714,12.8911864 14.1919821,12.8911864 12.8691071,14.2132203 Z M15.2681964,0.677966102 C16.7647857,0.677966102 17.9824821,1.89457627 17.9824821,3.38983051 C17.9824821,4.88508475 16.7647857,6.10169492 15.2681964,6.10169492 C13.7716071,6.10169492 12.5539107,4.88508475 12.5539107,3.38983051 C12.5539107,1.89457627 13.7712678,0.677966102 15.2681964,0.677966102 Z M3.39319643,12.6969492 C1.89660714,12.6969492 0.678910713,11.480339 0.678910713,9.98508475 C0.678910713,8.48983051 1.89660714,7.27322034 3.39319643,7.27322034 C4.88978571,7.27322034 6.10748214,8.48983051 6.10748214,9.98508475 C6.10748214,11.480339 4.88978571,12.6969492 3.39319643,12.6969492 Z M17.1871964,18.5277966 C16.1289642,19.5850847 14.4070892,19.5850847 13.3488571,18.5277966 C12.8361964,18.0155932 12.5539107,17.3342373 12.5539107,16.6101695 C12.5539107,15.8861017 12.8361964,15.2047458 13.3488571,14.6925424 C13.8781428,14.1637288 14.573,13.899661 15.2681964,13.899661 C15.9633928,13.899661 16.65825,14.1637288 17.1875357,14.6925424 C17.7001964,15.2047458 17.9824821,15.8861017 17.9824821,16.6101695 C17.9824821,17.3342373 17.7001964,18.0155932 17.1871964,18.5277966 Z" id="Shape"></path>
                </g>
            </g>
            <path d="M42.9652888,119.665612 C42.6587502,116.382418 40.2706568,114.000393 37.2820061,114.000393 C35.2909186,114.000393 33.4678417,115.043045 32.4420075,116.714117 C31.4254624,115.021429 29.6771018,114 27.7179201,114 C24.7296733,114 22.341176,116.382025 22.0350412,119.665219 C22.0108089,119.810239 21.9114565,120.573462 22.2135525,121.81812 C22.6489262,123.613383 23.6545668,125.246334 25.121025,126.539332 L32.437161,133 L39.8789012,126.539725 C41.3453594,125.246334 42.3509999,123.613776 42.7863737,121.81812 C43.0884697,120.573855 42.9891173,119.810632 42.9652888,119.665612 Z" id="Shape-Copy" stroke="#D8232A" stroke-width="1.2" fill="#D8232A" fill-rule="nonzero"></path>
            <g id="browser" transform="translate(17.000000, 152.065590)" fill-rule="nonzero">
                <path d="M2.82352941,27.86882 L27.1764706,27.86882 C28.7358628,27.86882 30,26.6046828 30,25.0452906 L30,2.82352941 C30,1.26413718 28.7358628,-2.63677968e-16 27.1764706,-2.63677968e-16 L2.82352941,-2.63677968e-16 C1.26413718,-2.63677968e-16 0,1.26413718 0,2.82352941 L0,25.0452906 C0,26.6046828 1.26413718,27.86882 2.82352941,27.86882 Z M3.19304982,1.07191 L26.8070204,1.07191 C27.9765646,1.07191 28.9246675,2.02001288 28.9246675,3.18955706 L28.9246675,24.6792629 C28.9246675,25.8488071 27.9765646,26.79691 26.8070204,26.79691 L3.19304982,26.79691 C2.02350564,26.79691 1.07540276,25.8488071 1.07540276,24.6792629 L1.07540276,3.18955706 C1.07540276,2.02001288 2.02350564,1.07191 3.19304982,1.07191 Z" id="Shape" fill="#303030"></path>
                <polygon id="Path" fill="#000000" points="7.00462005 8.33462 6.29889796 7.63119 5.53853842 8.38908 7.04661645 9.89219 9.91669808 6.71426 9.11644898 5.9962"></polygon>
                <rect id="Rectangle" fill="#303030" x="12.7426765" y="6.35523" width="7.05882353" height="1.07191" rx="0.535955"></rect>
                <rect id="Rectangle" fill="#303030" x="12.7426765" y="8.49898" width="11.4705882" height="1.07191" rx="0.535955"></rect>
                <rect id="Rectangle" fill="#303030" x="12.7426765" y="12.34478" width="7.05882353" height="1.07191" rx="0.535955"></rect>
                <rect id="Rectangle" fill="#303030" x="12.7426765" y="14.48853" width="11.4705882" height="1.07191" rx="0.535955"></rect>
                <rect id="Rectangle" fill="#303030" x="12.7426765" y="18.33531" width="7.05882353" height="1.07191" rx="0.535955"></rect>
                <rect id="Rectangle" fill="#303030" x="12.7426765" y="20.47906" width="11.4705882" height="1.07191" rx="0.535955"></rect>
                <path d="M7.4267611,11.80879 C6.24110024,11.80879 5.27602581,12.77073 5.27602581,13.95254 C5.27602581,15.13435 6.24110024,16.09629 7.4267611,16.09629 C8.61242197,16.09629 9.5774964,15.13435 9.5774964,13.95254 C9.5774964,12.7708 8.61242197,11.80879 7.4267611,11.80879 Z M7.4267611,15.02445 C6.83340396,15.02445 6.35135834,14.54397 6.35135834,13.95254 C6.35135834,13.36111 6.83340396,12.88063 7.4267611,12.88063 C8.02011825,12.88063 8.50216387,13.36111 8.50216387,13.95254 C8.50209364,14.54397 8.02011825,15.02445 7.4267611,15.02445 Z" id="Shape" fill="#D8232A"></path>
                <path d="M7.4267611,17.79939 C6.24110024,17.79939 5.27602581,18.76133 5.27602581,19.94314 C5.27602581,21.12495 6.24110024,22.08689 7.4267611,22.08689 C8.61242197,22.08689 9.5774964,21.12495 9.5774964,19.94314 C9.5774964,18.76133 8.61242197,17.79939 7.4267611,17.79939 Z M7.4267611,21.01498 C6.83340396,21.01498 6.35135834,20.5345 6.35135834,19.94307 C6.35135834,19.35164 6.83340396,18.87116 7.4267611,18.87116 C8.02011825,18.87116 8.50216387,19.35164 8.50216387,19.94307 C8.50216387,20.5345 8.02011825,21.01498 7.4267611,21.01498 Z" id="Shape" fill="#000000"></path>
            </g>
            <g id="browser" transform="translate(17.000000, 198.065590)" fill-rule="nonzero">
                <path d="M2.82352941,27.86882 L27.1764706,27.86882 C28.7358628,27.86882 30,26.6046828 30,25.0452906 L30,2.82352941 C30,1.26413718 28.7358628,-2.63677968e-16 27.1764706,-2.63677968e-16 L2.82352941,-2.63677968e-16 C1.26413718,-2.63677968e-16 0,1.26413718 0,2.82352941 L0,25.0452906 C0,26.6046828 1.26413718,27.86882 2.82352941,27.86882 Z M3.19304982,1.07191 L26.8070204,1.07191 C27.9765646,1.07191 28.9246675,2.02001288 28.9246675,3.18955706 L28.9246675,24.6792629 C28.9246675,25.8488071 27.9765646,26.79691 26.8070204,26.79691 L3.19304982,26.79691 C2.02350564,26.79691 1.07540276,25.8488071 1.07540276,24.6792629 L1.07540276,3.18955706 C1.07540276,2.02001288 2.02350564,1.07191 3.19304982,1.07191 Z" id="Shape" fill="#303030"></path>
                <g id="`" transform="translate(5.913134, 8.885582)" fill="#D8232A">
                    <path d="M5.54394531,10.0830078 L5.54394531,10.0283203 L2.07128906,5.53027344 C2.1077474,5.53027344 2.12597656,5.52115886 2.12597656,5.50292969 C2.44042969,5.50292969 2.97135417,5.28873698 3.71875,4.86035157 C4.56184896,4.20865886 4.98339844,3.53873698 4.98339844,2.85058594 L4.98339844,2.85058594 L6.52148438,2.85058594 C6.55794271,2.85058594 6.57617188,2.83235678 6.57617188,2.79589844 L6.57617188,2.79589844 L6.57617188,2.18066407 C6.57617188,2.14876303 6.55794271,2.13053386 6.52148438,2.12597657 L6.52148438,2.12597657 L4.921875,2.12597657 L4.89453125,1.92773438 C4.703125,1.34895834 4.43424479,0.966145835 4.08789063,0.779296875 L4.08789063,0.779296875 L4.08789063,0.724609375 L6.52148438,0.724609375 C6.55794271,0.724609375 6.57617188,0.706380205 6.57617188,0.669921875 L6.57617188,0.669921875 L6.57617188,0.054687505 C6.57617188,0.022786458 6.55794271,0.004557292 6.52148438,0 L6.52148438,0 L0.0546875,0 C0.022786459,0 0.004557292,0.018229167 4.4408921e-16,0.054687505 L4.4408921e-16,0.054687505 L4.4408921e-16,0.669921875 C4.4408921e-16,0.706380205 0.018229167,0.724609375 0.0546875,0.724609375 L0.0546875,0.724609375 L1.23046875,0.724609375 C1.63606771,0.724609375 2.08496094,0.854492185 2.57714844,1.11425782 C2.93261719,1.37402344 3.16503906,1.71126303 3.27441406,2.12597657 L3.27441406,2.12597657 L0.0546875,2.12597657 C0.022786459,2.12597657 0.004557292,2.14420573 4.4408921e-16,2.18066407 L4.4408921e-16,2.18066407 L4.4408921e-16,2.79589844 C4.4408921e-16,2.83235678 0.018229167,2.85058594 0.0546875,2.85058594 L0.0546875,2.85058594 L3.30175781,2.85058594 L3.30175781,2.93261719 C3.30175781,3.01009115 3.29264323,3.11263021 3.27441406,3.24023438 C2.97819011,4.30208334 2.09179688,4.83300782 0.615234378,4.83300782 L0.615234378,4.83300782 L0.198242188,4.83300782 L0.198242188,4.86035157 C2.86881511,8.3421224 4.2109375,10.0830078 4.22460938,10.0830078 L4.22460938,10.0830078 L5.54394531,10.0830078 Z" id="Path"></path>
                </g>
                <rect id="Rectangle" fill="#303030" x="15.7426765" y="9.35523" width="7.05882353" height="1.07191" rx="0.535955"></rect>
                <path d="M16.2786315,11.49898 L23.6773097,11.49898 C23.9733095,11.49898 24.2132647,11.7389352 24.2132647,12.034935 C24.2132647,12.3309348 23.9733095,12.57089 23.6773097,12.57089 L16.2786315,12.57089 C15.9826317,12.57089 15.7426765,12.3309348 15.7426765,12.034935 C15.7426765,11.7389352 15.9826317,11.49898 16.2786315,11.49898 Z" id="Rectangle" fill="#303030"></path>
                <rect id="Rectangle" fill="#303030" x="15.7426765" y="15.34478" width="7.05882353" height="1.07191" rx="0.535955"></rect>
                <path d="M16.2786315,17.48853 L23.6773097,17.48853 C23.9733095,17.48853 24.2132647,17.7284852 24.2132647,18.024485 C24.2132647,18.3204848 23.9733095,18.56044 23.6773097,18.56044 L16.2786315,18.56044 C15.9826317,18.56044 15.7426765,18.3204848 15.7426765,18.024485 C15.7426765,17.7284852 15.9826317,17.48853 16.2786315,17.48853 Z" id="Rectangle" fill="#303030"></path>
            </g>
            <polygon id="Star" stroke="#F7B500" stroke-width="0.742857116" fill="#FFCC33" fill-rule="nonzero" points="32 259 26.1221475 262.09017 27.2447174 255.545085 22.4894348 250.90983 29.0610737 249.954915 32 244 34.9389263 249.954915 41.5105652 250.90983 36.7552826 255.545085 37.8778525 262.09017"></polygon>
            <polygon id="Star" stroke="#F7B500" stroke-width="0.742857116" fill="url(#linearGradient-1)" fill-rule="nonzero" points="32 295 26.1221475 298.09017 27.2447174 291.545085 22.4894348 286.90983 29.0610737 285.954915 32 280 34.9389263 285.954915 41.5105652 286.90983 36.7552826 291.545085 37.8778525 298.09017"></polygon>
            <polygon id="Star" stroke="#F7B500" stroke-width="0.742857116" fill="#FFFFFF" fill-rule="nonzero" points="32 331 26.1221475 334.09017 27.2447174 327.545085 22.4894348 322.90983 29.0610737 321.954915 32 316 34.9389263 321.954915 41.5105652 322.90983 36.7552826 327.545085 37.8778525 334.09017"></polygon>
            <g id="like" transform="translate(24.000000, 354.000000)" fill="#1BB814" fill-rule="nonzero">
                <path d="M15.5198124,10.8774571 C15.8571248,10.4592221 16.0188971,10.0108741 15.9982453,9.54914262 C15.9775935,9.0405688 15.74354,8.64240903 15.5507901,8.39815977 C15.7745177,7.85612714 15.8605668,7.00292765 15.1136607,6.34044333 C14.5663886,5.85529067 13.6370585,5.63780845 12.3497642,5.6980343 C11.4445279,5.73818486 10.687296,5.902133 10.6563183,5.90882476 L10.6528763,5.90882476 C10.4807782,5.93893768 10.2983541,5.97574237 10.1124881,6.01589293 C10.0987202,5.80175659 10.1365818,5.26976161 10.5427335,4.07193643 C11.0246084,2.64659138 10.9970727,1.55583438 10.4532425,0.826432455 C9.88187656,0.0602258469 8.96975629,0 8.70128316,0 C8.44313591,0 8.20564044,0.103722292 8.03698424,0.294437474 C7.65492632,0.726056043 7.69967184,1.52237558 7.74785933,1.89042242 C7.29352018,3.07486407 6.01999377,5.97908825 4.94265926,6.78544542 C4.92200748,6.79882894 4.90479767,6.81555834 4.88758785,6.83228775 C4.57092723,7.15683814 4.3575255,7.50815558 4.21296305,7.81597658 C4.00988721,7.70890841 3.77927567,7.64868256 3.53145432,7.64868256 L1.43185672,7.64868256 C0.640205169,7.64868256 0,8.27436219 0,9.0405688 L0,14.4776244 C0,15.2471769 0.643647132,15.8695107 1.43185672,15.8695107 L3.53145432,15.8695107 C3.83778905,15.8695107 4.123472,15.775826 4.3575255,15.6152238 L5.16638687,15.7089084 C5.29029755,15.7256378 7.49315405,15.9966541 9.75452392,15.9531577 C10.1641175,15.9832706 10.5496174,16 10.9075816,16 C11.523693,16 12.0606393,15.9531577 12.5080945,15.859473 C13.5613353,15.6419908 14.2807056,15.2070263 14.6455537,14.5679632 C14.9243528,14.0794647 14.9243528,13.594312 14.8796072,13.286491 C15.5645579,12.6842325 15.6850266,12.0184023 15.6609329,11.5499791 C15.647165,11.2789628 15.5852097,11.048097 15.5198124,10.8774571 Z M1.43185672,14.966123 C1.1530577,14.966123 0.929330084,14.7452949 0.929330084,14.4776244 L0.929330084,9.03722292 C0.929330084,8.76620661 1.15649966,8.54872438 1.43185672,8.54872438 L3.53145432,8.54872438 C3.81025334,8.54872438 4.03398096,8.76955249 4.03398096,9.03722292 L4.03398096,14.4742785 C4.03398096,14.7452949 3.80681138,14.9627771 3.53145432,14.9627771 L1.43185672,14.9627771 L1.43185672,14.966123 Z M14.6386698,10.4859891 C14.4941073,10.6332079 14.4665716,10.8573818 14.5767145,11.0313676 C14.5767145,11.0347135 14.717835,11.2689251 14.7350448,11.5901297 C14.7591385,12.02844 14.5422948,12.4165621 14.0879557,12.7478043 C13.9261834,12.868256 13.8607861,13.0757005 13.9296254,13.2630698 C13.9296254,13.2664157 14.0776298,13.7080719 13.8366924,14.126307 C13.6060808,14.5278126 13.0932283,14.8155583 12.3153446,14.9761606 C11.6923492,15.1066499 10.8456263,15.1300711 9.80615337,15.04977 C9.79238551,15.04977 9.7751757,15.04977 9.75796588,15.04977 C7.5447835,15.0966123 5.30750737,14.8155583 5.28341363,14.8122125 L5.27997166,14.8122125 L4.93233337,14.7720619 C4.95298515,14.6783772 4.96331104,14.5780008 4.96331104,14.4776244 L4.96331104,9.03722292 C4.96331104,8.89335006 4.9392173,8.75282309 4.89791374,8.62233375 C4.95986908,8.39815977 5.13196724,7.89962359 5.53811891,7.47469678 C7.08356042,6.28356336 8.59458229,2.26516102 8.6599796,2.09117524 C8.6875153,2.02091175 8.69439923,1.9439565 8.68063138,1.86700125 C8.622118,1.49226265 8.64276978,1.03387704 8.7253769,0.896695943 C8.90780095,0.900041824 9.4000017,0.950230029 9.69601054,1.3483898 C10.0470908,1.82015893 10.0333229,2.66332079 9.65470698,3.78084483 C9.07645715,5.48389795 9.02826967,6.38059389 9.48605078,6.77540778 C9.71322036,6.97281472 10.0161131,6.98285236 10.2363988,6.90589711 C10.4463585,6.85905479 10.6459924,6.81890422 10.8353004,6.7887913 C10.8490682,6.78544542 10.8662781,6.78209954 10.8800459,6.77875366 C11.9367286,6.55457967 13.8298084,6.41739858 14.4872234,6.99958176 C15.0448215,7.49477206 14.6489957,8.15056462 14.6042502,8.22082811 C14.4768975,8.40819741 14.5147591,8.65244668 14.6868573,8.80301129 C14.6902993,8.80635717 15.0517054,9.13759933 15.0689152,9.58260142 C15.0826831,9.88038478 14.9381206,10.1848599 14.6386698,10.4859891 Z" id="Shape"></path>
            </g>
            <g id="like" transform="translate(32.000000, 398.000000) scale(-1, 1) rotate(-180.000000) translate(-32.000000, -398.000000) translate(24.000000, 390.000000)" fill="#D8232A" fill-rule="nonzero">
                <path d="M15.5198124,10.8774571 C15.8571248,10.4592221 16.0188971,10.0108741 15.9982453,9.54914262 C15.9775935,9.0405688 15.74354,8.64240903 15.5507901,8.39815977 C15.7745177,7.85612714 15.8605668,7.00292765 15.1136607,6.34044333 C14.5663886,5.85529067 13.6370585,5.63780845 12.3497642,5.6980343 C11.4445279,5.73818486 10.687296,5.902133 10.6563183,5.90882476 L10.6528763,5.90882476 C10.4807782,5.93893768 10.2983541,5.97574237 10.1124881,6.01589293 C10.0987202,5.80175659 10.1365818,5.26976161 10.5427335,4.07193643 C11.0246084,2.64659138 10.9970727,1.55583438 10.4532425,0.826432455 C9.88187656,0.0602258469 8.96975629,0 8.70128316,0 C8.44313591,0 8.20564044,0.103722292 8.03698424,0.294437474 C7.65492632,0.726056043 7.69967184,1.52237558 7.74785933,1.89042242 C7.29352018,3.07486407 6.01999377,5.97908825 4.94265926,6.78544542 C4.92200748,6.79882894 4.90479767,6.81555834 4.88758785,6.83228775 C4.57092723,7.15683814 4.3575255,7.50815558 4.21296305,7.81597658 C4.00988721,7.70890841 3.77927567,7.64868256 3.53145432,7.64868256 L1.43185672,7.64868256 C0.640205169,7.64868256 0,8.27436219 0,9.0405688 L0,14.4776244 C0,15.2471769 0.643647132,15.8695107 1.43185672,15.8695107 L3.53145432,15.8695107 C3.83778905,15.8695107 4.123472,15.775826 4.3575255,15.6152238 L5.16638687,15.7089084 C5.29029755,15.7256378 7.49315405,15.9966541 9.75452392,15.9531577 C10.1641175,15.9832706 10.5496174,16 10.9075816,16 C11.523693,16 12.0606393,15.9531577 12.5080945,15.859473 C13.5613353,15.6419908 14.2807056,15.2070263 14.6455537,14.5679632 C14.9243528,14.0794647 14.9243528,13.594312 14.8796072,13.286491 C15.5645579,12.6842325 15.6850266,12.0184023 15.6609329,11.5499791 C15.647165,11.2789628 15.5852097,11.048097 15.5198124,10.8774571 Z M1.43185672,14.966123 C1.1530577,14.966123 0.929330084,14.7452949 0.929330084,14.4776244 L0.929330084,9.03722292 C0.929330084,8.76620661 1.15649966,8.54872438 1.43185672,8.54872438 L3.53145432,8.54872438 C3.81025334,8.54872438 4.03398096,8.76955249 4.03398096,9.03722292 L4.03398096,14.4742785 C4.03398096,14.7452949 3.80681138,14.9627771 3.53145432,14.9627771 L1.43185672,14.9627771 L1.43185672,14.966123 Z M14.6386698,10.4859891 C14.4941073,10.6332079 14.4665716,10.8573818 14.5767145,11.0313676 C14.5767145,11.0347135 14.717835,11.2689251 14.7350448,11.5901297 C14.7591385,12.02844 14.5422948,12.4165621 14.0879557,12.7478043 C13.9261834,12.868256 13.8607861,13.0757005 13.9296254,13.2630698 C13.9296254,13.2664157 14.0776298,13.7080719 13.8366924,14.126307 C13.6060808,14.5278126 13.0932283,14.8155583 12.3153446,14.9761606 C11.6923492,15.1066499 10.8456263,15.1300711 9.80615337,15.04977 C9.79238551,15.04977 9.7751757,15.04977 9.75796588,15.04977 C7.5447835,15.0966123 5.30750737,14.8155583 5.28341363,14.8122125 L5.27997166,14.8122125 L4.93233337,14.7720619 C4.95298515,14.6783772 4.96331104,14.5780008 4.96331104,14.4776244 L4.96331104,9.03722292 C4.96331104,8.89335006 4.9392173,8.75282309 4.89791374,8.62233375 C4.95986908,8.39815977 5.13196724,7.89962359 5.53811891,7.47469678 C7.08356042,6.28356336 8.59458229,2.26516102 8.6599796,2.09117524 C8.6875153,2.02091175 8.69439923,1.9439565 8.68063138,1.86700125 C8.622118,1.49226265 8.64276978,1.03387704 8.7253769,0.896695943 C8.90780095,0.900041824 9.4000017,0.950230029 9.69601054,1.3483898 C10.0470908,1.82015893 10.0333229,2.66332079 9.65470698,3.78084483 C9.07645715,5.48389795 9.02826967,6.38059389 9.48605078,6.77540778 C9.71322036,6.97281472 10.0161131,6.98285236 10.2363988,6.90589711 C10.4463585,6.85905479 10.6459924,6.81890422 10.8353004,6.7887913 C10.8490682,6.78544542 10.8662781,6.78209954 10.8800459,6.77875366 C11.9367286,6.55457967 13.8298084,6.41739858 14.4872234,6.99958176 C15.0448215,7.49477206 14.6489957,8.15056462 14.6042502,8.22082811 C14.4768975,8.40819741 14.5147591,8.65244668 14.6868573,8.80301129 C14.6902993,8.80635717 15.0517054,9.13759933 15.0689152,9.58260142 C15.0826831,9.88038478 14.9381206,10.1848599 14.6386698,10.4859891 Z" id="Shape"></path>
            </g>
            <g id="Group-3" transform="translate(20.000000, 426.000000)" fill-rule="nonzero">
                <path d="M4,0 L20,0 C22.209139,0 24,1.790861 24,4 L24,20 C24,22.209139 22.209139,24 20,24 L4,24 C1.790861,24 0,22.209139 0,20 L0,4 C0,1.790861 1.790861,0 4,0 Z" id="Rectangle-22" fill-opacity="0.8" fill="#000000"></path>
                <g id="zoom-in" transform="translate(5.321365, 5.000000)" fill="#FFFFFF">
                    <path d="M9.15384615,6.41509434 L7.19230769,6.41509434 L7.19230769,4.49056604 C7.19230769,4.31350943 7.04584615,4.16981132 6.86538461,4.16981132 C6.68492307,4.16981132 6.53846153,4.31350943 6.53846153,4.49056604 L6.53846153,6.41509434 L4.57692307,6.41509434 C4.39646153,6.41509434 4.24999999,6.55879245 4.24999999,6.73584906 C4.24999999,6.91290566 4.39646153,7.05660377 4.57692307,7.05660377 L6.53846153,7.05660377 L6.53846153,8.98113208 C6.53846153,9.15818868 6.68492307,9.30188679 6.86538461,9.30188679 C7.04584615,9.30188679 7.19230769,9.15818868 7.19230769,8.98113208 L7.19230769,7.05660377 L9.15384615,7.05660377 C9.33430769,7.05660377 9.48076923,6.91290566 9.48076923,6.73584906 C9.48076923,6.55879245 9.33430769,6.41509434 9.15384615,6.41509434 Z" id="Path"></path>
                    <path d="M15.1676518,15.031843 L11.7241154,11.489434 C12.9631538,10.2702453 13.7307692,8.58949057 13.7307692,6.73584906 C13.7307692,3.02150943 10.6511538,-3.96085167e-23 6.86538461,-3.96085167e-23 C3.07961538,-3.96085167e-23 0,3.02150943 0,6.73584906 C0,10.4501887 3.07961538,13.4716981 6.86538461,13.4716981 C8.52713461,13.4716981 10.0522308,12.8888868 11.2409231,11.9218113 L14.6962287,15.4764091 C14.7603057,15.5421638 14.8459595,15.5748808 14.9319403,15.5748808 C15.013671,15.5748808 15.0950749,15.5450506 15.158498,15.4853902 C15.2886133,15.3625412 15.2925364,15.1595034 15.1676518,15.031843 Z M0.653846153,6.73584906 C0.653846153,3.37530189 3.44021153,0.641509434 6.86538461,0.641509434 C10.2905577,0.641509434 13.0769231,3.37530189 13.0769231,6.73584906 C13.0769231,10.0963962 10.2905577,12.8301887 6.86538461,12.8301887 C3.44021153,12.8301887 0.653846153,10.0963962 0.653846153,6.73584906 Z" id="Shape"></path>
                    <path d="M0.653846153,6.73584906 C0.653846153,3.37530189 3.44021153,0.641509434 6.86538461,0.641509434 C10.2905577,0.641509434 13.0769231,3.37530189 13.0769231,6.73584906 C13.0769231,10.0963962 10.2905577,12.8301887 6.86538461,12.8301887 C3.44021153,12.8301887 0.653846153,10.0963962 0.653846153,6.73584906 Z" id="Path" fill-opacity="0.3"></path>
                </g>
            </g>
            <polygon id="Star" stroke="#F7B500" stroke-width="0.742857116" fill="url(#linearGradient-2)" fill-rule="nonzero" points="32 500.839262 30.1894045 504.507929 26.1407899 505.096227 29.070395 507.951886 28.378809 511.984142 32 510.080369 35.621191 511.984142 34.929605 507.951886 37.8592101 505.096227 33.8105955 504.507929"></polygon>
            <polygon id="Star" stroke="#F7B500" stroke-width="0.742857116" fill="#FFFFFF" fill-rule="nonzero" points="32 530.839262 30.1894045 534.507929 26.1407899 535.096227 29.070395 537.951886 28.378809 541.984142 32 540.080369 35.621191 541.984142 34.929605 537.951886 37.8592101 535.096227 33.8105955 534.507929"></polygon>
            <g id="play" transform="translate(18.000000, 564.000000)" fill-rule="nonzero">
                <circle id="Oval" fill="#000000" cx="14" cy="14" r="14"></circle>
                <path d="M13.9755106,0 C6.23673476,0 0,6.26938773 0,13.9755106 C0,21.681633 6.26938773,27.9510212 13.9755106,27.9510212 C21.681633,27.9510212 27.9510212,21.681633 27.9510212,13.9755106 C27.9510212,6.26938773 21.7142869,0 13.9755106,0 Z M20.2445754,15.0530559 L16.0976367,17.4367292 C16.0649834,17.4367292 16.0649834,17.4693819 16.0323307,17.4693819 L11.8853915,19.8530552 C11.6894731,19.9836674 11.4282487,20.0816269 11.1670241,20.0816269 C10.4813098,20.0816269 9.89355469,19.5265246 9.89355469,18.8081574 L9.89355469,13.9755048 L9.89355469,9.11019883 C9.89355469,8.88162745 9.95886081,8.68570904 10.05682,8.48979072 C10.4160037,7.90203563 11.1670241,7.67346421 11.7874323,8.03264787 L15.9996774,10.4489743 L20.1792694,12.8653006 C20.3751881,12.9632598 20.5384535,13.126525 20.6690656,13.3224434 C21.0609024,13.9428517 20.8649836,14.7265254 20.2445754,15.0530559 Z" id="Shape" fill="#FFFFFF"></path>
            </g>
            <g id="Group-14" transform="translate(22.000000, 615.000000)" fill-rule="nonzero">
                <g id="Group-6">
                    <path d="M9.9995884,0 C4.47751501,0 0,4.40085633 0,9.83008284 C0,9.93571379 0.0496668298,12.4618529 0.909278002,14.2634267 C3.37213078,19.8477581 9.99080752,26.0315312 9.9995884,26.0001201 C10.0108389,26.0210423 16.6014351,19.8713348 19.0763616,14.2967497 C19.8111197,12.9751561 20,10.0453361 20,9.82924745 C20.0008232,4.40085633 15.522485,0 9.9995884,0 L9.9995884,0 Z" id="Shape" fill="#D8232A"></path>
                    <path d="M10,14.4 C7.23569936,14.4 5,12.2523181 5,9.60141047 C5,6.94909233 7.23569936,4.8 10,4.8 C12.7628314,4.8 15,6.94909233 15,9.60141047 C15,12.2523181 12.7628314,14.4 10,14.4 L10,14.4 Z" id="Path" stroke="#D8232A" stroke-width="2.4" fill="#FFFFFF"></path>
                </g>
            </g>
            <g id="full-screen" transform="translate(22.000000, 664.000000)" fill="#000000" fill-rule="nonzero">
                <path d="M5,1.25 L5,0 L0.625,0 C0.279804687,0 0,0.279804687 0,0.625 L0,5 L1.25,5 L1.25,2.13125 L7.05625,7.9375 L7.9375,7.05625 L2.13125,1.25 L5,1.25 Z" id="Path"></path>
                <path d="M19.375,0 L15,0 L15,1.25 L17.86875,1.25 L12.0625,7.05625 L12.94375,7.9375 L18.75,2.13125 L18.75,5 L20,5 L20,0.625 C20,0.279804687 19.7201953,0 19.375,0 Z" id="Path"></path>
                <path d="M18.75,17.86875 L12.94375,12.0625 L12.0625,12.94375 L17.86875,18.75 L15,18.75 L15,20 L19.375,20 C19.7201953,20 20,19.7201953 20,19.375 L20,15 L18.75,15 L18.75,17.86875 Z" id="Path"></path>
                <path d="M7.05625,12.05625 L1.25,17.86875 L1.25,15 L0,15 L0,19.375 C0,19.7201953 0.279804687,20 0.625,20 L5,20 L5,18.75 L2.13125,18.75 L7.9375,12.94375 L7.05625,12.05625 Z" id="Path"></path>
            </g>
            <polygon id="Star" stroke="#F7B500" stroke-width="0.742857116" fill="#FFCC33" fill-rule="nonzero" points="32 470.839262 30.1894045 474.507929 26.1407899 475.096227 29.070395 477.951886 28.378809 481.984142 32 480.080369 35.621191 481.984142 34.929605 477.951886 37.8592101 475.096227 33.8105955 474.507929"></polygon>
            <g id="Group-38" transform="translate(0.000000, 716.000000)" fill-rule="nonzero">
                <path d="M32.0485804,64.0963855 C2.13106799,64.0963855 0,13.6046153 0,13.6046153 L32.0478052,0 L32.0485804,0 L64.0963855,13.6046153 C64.0963855,13.6046153 61.9653175,64.0963855 32.0485804,64.0963855 Z" id="Path" fill="#1BB814"></path>
                <path d="M27.744918,30.2506881 L29.8028071,30.2506881 C31.8195485,30.2506881 33.3080734,29.8926522 34.2684264,29.1765695 C35.2287795,28.4604868 35.7089488,27.3352309 35.7089488,25.8007681 C35.7089488,24.2809191 35.2184901,23.1995044 34.2375581,22.5564914 C33.2566261,21.9134783 31.7372332,21.5919767 29.6793338,21.5919767 L27.744918,21.5919767 L27.744918,30.2506881 Z M27.744918,35.7747268 L27.744918,48.0722892 L21.3654618,48.0722892 L21.3654618,16.0240964 L30.1320694,16.0240964 C34.2204295,16.0240964 37.2454962,16.8168903 39.2073603,18.4025019 C41.1692243,19.9881136 42.1501417,22.3957228 42.1501417,25.6254017 C42.1501417,27.510599 41.6631128,29.1875225 40.6890404,30.6562227 C39.714968,32.1249229 38.3361961,33.2757528 36.5526833,34.1087469 C41.080062,41.3134154 44.0296735,45.9678829 45.4016064,48.0722892 L38.322468,48.0722892 L31.140435,35.7747268 L27.744918,35.7747268 Z" id="R" fill="#FFFFFF"></path>
            </g>
            <g id="balcony" transform="translate(19.000000, 845.900000)" stroke="#000000" stroke-width="0.5">
                <g id="Group-21" transform="translate(0.000000, 13.488889)">
                    <line x1="2.08510638" y1="0.78888889" x2="2.08510638" y2="10.0333333" id="Line"></line>
                    <line x1="4.46808511" y1="0.78888889" x2="4.46808511" y2="10.0333333" id="Line"></line>
                    <line x1="6.85106383" y1="0.78888889" x2="6.85106383" y2="10.0333333" id="Line"></line>
                    <line x1="9.23404255" y1="0.78888889" x2="9.23404255" y2="10.0333333" id="Line"></line>
                    <line x1="11.6170213" y1="0.78888889" x2="11.6170213" y2="10.0333333" id="Line"></line>
                    <line x1="14" y1="0.78888889" x2="14" y2="10.0333333" id="Line"></line>
                    <line x1="16.3829787" y1="0.78888889" x2="16.3829787" y2="10.0333333" id="Line"></line>
                    <line x1="18.7659574" y1="0.78888889" x2="18.7659574" y2="10.0333333" id="Line"></line>
                    <line x1="21.1489362" y1="0.78888889" x2="21.1489362" y2="10.0333333" id="Line"></line>
                    <line x1="23.5319149" y1="0.78888889" x2="23.5319149" y2="10.0333333" id="Line"></line>
                    <line x1="25.9148936" y1="0.78888889" x2="25.9148936" y2="10.0333333" id="Line"></line>
                    <line x1="1.19148936" y1="10.0911104" x2="27.4042553" y2="9.97555621" id="Line"></line>
                    <line x1="0" y1="0.5" x2="28" y2="0.5" id="Line"></line>
                </g>
                <line x1="5.6" y1="0.5" x2="22.4" y2="0.5" id="Line"></line>
                <line x1="6" y1="0.9" x2="6" y2="13.7" id="Line"></line>
                <line x1="14.8" y1="0.9" x2="14.8" y2="13.7" id="Line"></line>
                <line x1="22" y1="0.9" x2="22" y2="13.7" id="Line"></line>
            </g>
            <g id="Group" transform="translate(0.000000, 891.000000)">
                <rect id="Rectangle" fill="#D8D8D8" fill-rule="nonzero" x="0" y="14" width="65" height="40" rx="6"></rect>
                <path d="M11,0 L55,0 C58.3137,0 61,2.6863 61,6 L61,20.589 L39.715,34 L24.098,34 L5,20.049 L5,6 C5,2.6863 7.6863,0 11,0 Z" id="Path" fill="#2CB700" fill-rule="nonzero"></path>
                <g transform="translate(0.000000, 14.000000)">
                    <g id="a-link" fill="#D8D8D8" fill-rule="nonzero">
                        <rect id="a" x="0" y="0" width="65" height="40" rx="6"></rect>
                    </g>
                    <g id="Path-Clipped">
                        <mask id="mask-4" fill="white">
                            <use xlink:href="#path-3"></use>
                        </mask>
                        <g id="path-3"></g>
                        <path d="M11,-14 L55,-14 C58.3137,-14 61,-11.3137 61,-8 L61,6.589 L39.715,20 L24.098,20 L5,6.049 L5,-8 C5,-11.3137 7.6863,-14 11,-14 Z" id="Path" fill="#2CB700" fill-rule="nonzero" mask="url(#mask-4)"></path>
                    </g>
                    <g id="Path-Clipped">
                        <mask id="mask-6" fill="white">
                            <use xlink:href="#path-5"></use>
                        </mask>
                        <g id="path-5"></g>
                        <path d="M31.601,16.9998 C36.2246,16.9998 46.026,23.4964 61.005,36.489 C61.8394,37.21277 61.92909,38.4759 61.20532,39.3103 C60.82545,39.74824 60.27424,39.9998 59.69452,39.9998 L0.00052,39.9998 C16.04452,24.6668 26.57852,16.9998 31.60152,16.9998 L31.601,16.9998 Z" id="Path" fill="#EAEAEA" fill-rule="nonzero" mask="url(#mask-6)"></path>
                    </g>
                </g>
                <path d="M24.707,15.018 C24.31648,14.62748 23.6833,14.62748 23.2928,15.018 C22.9023,15.40852 22.90228,16.0417 23.2928,16.4322 L29.9721,23.1115 L43.3761,9.7075 C43.76662,9.31698 43.76662,8.6838 43.3761,8.2933 C42.98558,7.9028 42.3524,7.90278 41.9619,8.2933 L29.9719,20.2833 L24.7068,15.0182 L24.707,15.018 Z" id="Path" fill="#FFFFFF" fill-rule="nonzero"></path>
            </g>
            <g id="Group" transform="translate(7.000000, 956.000000)">
                <g transform="translate(20.000000, 0.000000)" fill="#009681" fill-rule="nonzero" id="icon/16/Tick-thick">
                    <g>
                        <path d="M8.57683036,3.46966991 C8.86972358,3.1767767 9.34459732,3.1767767 9.63749053,3.46966991 C9.9037571,3.73593648 9.92796315,4.15260016 9.71010869,4.44621165 L9.63749053,4.53033009 L5.43031567,8.73750495 C5.16404911,9.00377151 4.74738543,9.02797756 4.45377393,8.8101231 L4.3696555,8.73750495 L2.46966991,6.83751936 C2.1767767,6.54462615 2.1767767,6.06975241 2.46966991,5.77685919 C2.73593648,5.51059263 3.15260016,5.48638658 3.44621165,5.70424104 L3.53033009,5.77685919 L4.9,7.146 L8.57683036,3.46966991 Z" id="Path-3"></path>
                    </g>
                </g>
                <g id="Group-13" stroke="#009681">
                    <circle id="Oval-2" fill="#E0F2F0" cx="6" cy="6" r="5.5"></circle>
                    <polyline id="Path-2" stroke-linejoin="round" points="3.75 6.06036134 5.34332093 7.65368227 8.4970032 4.5"></polyline>
                </g>
                <g transform="translate(40.000000, 0.000000)" fill="#909090" fill-rule="nonzero" id="icon/16/Tick-thick-Copy">
                    <g>
                        <path d="M6,0 C9.3137085,0 12,2.6862915 12,6 C12,9.3137085 9.3137085,12 6,12 C2.6862915,12 0,9.3137085 0,6 C0,2.6862915 2.6862915,0 6,0 Z M6,1 C3.23857625,1 1,3.23857625 1,6 C1,8.76142375 3.23857625,11 6,11 C8.76142375,11 11,8.76142375 11,6 C11,3.23857625 8.76142375,1 6,1 Z M6.75,5.6 L6.75,9.4 L5.25,9.4 L5.25,5.6 L6.75,5.6 Z M6.75,2.8 L6.75,4.3 L5.25,4.3 L5.25,2.8 L6.75,2.8 Z" id="Combined-Shape"></path>
                    </g>
                </g>
            </g>
            <g id="Group-3" transform="translate(1.000000, 976.000000)" stroke="#303030" stroke-linecap="round" stroke-linejoin="round">
                <g id="Group" transform="translate(22.000000, 0.000000)">
                    <rect id="Rectangle-2" x="1" y="3" width="18" height="14" rx="2"></rect>
                    <path d="M8.8,11.6069851 L8.8,8.27170255 C8.8,8.02908163 8.99668312,7.83239851 9.23930404,7.83239851 C9.31823156,7.83239851 9.39570133,7.85366251 9.46356929,7.8939551 L12.2857314,9.56944732 C12.4943556,9.6933056 12.5630719,9.96283586 12.4392136,10.17146 C12.4013831,10.2351809 12.3480481,10.2882964 12.2841718,10.3258638 L9.46200961,11.9856541 C9.25287646,12.108651 8.98363186,12.0388238 8.86063497,11.8296907 C8.82093424,11.762187 8.8,11.6852978 8.8,11.6069851 Z" id="Path"></path>
                </g>
                <g id="Combined-Shape" transform="translate(44.000000, 0.000000)">
                    <path d="M10.3333333,1.66666667 C14.1993264,1.66666667 17.3333333,4.69418189 17.3333333,8.4288117 C17.3333333,10.806112 15.2060148,14.0361363 10.9513778,18.1188846 L10.9513778,18.1188846 C10.6102131,18.4512863 10.0677004,18.4526307 9.72296694,18.1239435 L9.72296694,18.1239435 C5.46282814,14.0394401 3.33333333,10.8073277 3.33333333,8.4288117 C3.33333333,4.69418189 6.4673401,1.66666667 10.3333333,1.66666667 Z M10.445066,5.92882859 C9.06435413,5.92882859 7.945066,7.0100841 7.945066,8.34388036 C7.945066,9.67767654 9.06435413,10.7589321 10.445066,10.7589321 C11.8257778,10.7589321 12.945066,9.67767654 12.945066,8.34388036 C12.945066,7.0100841 11.8257778,5.92882859 10.445066,5.92882859 Z"></path>
                </g>
                <g id="icon/20/gallery" transform="translate(1.000000, 3.000000)">
                    <path d="M2,0 L16,0 C17.1045695,-2.02906125e-16 18,0.8954305 18,2 L18,12 C18,13.1045695 17.1045695,14 16,14 L2,14 C0.8954305,14 1.3527075e-16,13.1045695 0,12 L0,2 C-1.3527075e-16,0.8954305 0.8954305,2.02906125e-16 2,0 Z M0,10.8744915 L5.26653072,6.26781382 L10.0567279,10.4601752 L12.3232142,8.85686351 L17.2874633,13.2678138" id="Rectangle-2"></path>
                    <circle id="Oval" cx="13.5" cy="4.5" r="1.5"></circle>
                </g>
            </g>
            <g id="Group-2" transform="translate(17.000000, 1004.000000)">
                <circle id="Oval" fill="#FFFFFF" cx="16" cy="16" r="16"></circle>
                <path d="M11,20.9399503 L11,9.82234183 C11,9.01360543 11.6556104,8.35799504 12.4643468,8.35799504 C12.7274385,8.35799504 12.9856711,8.42887502 13.2118976,8.56318368 L22.6191048,14.1481577 C23.3145186,14.5610187 23.543573,15.4594529 23.1307121,16.1548667 C23.0046104,16.3672696 22.826827,16.5443214 22.6139058,16.6695461 L13.2066987,22.2021805 C12.5095882,22.6121701 11.6121062,22.3794127 11.2021166,21.6823022 C11.0697808,21.45729 11,21.2009928 11,20.9399503 Z" id="Path" fill="#D8232A"></path>
            </g>
            <g id="bath" transform="translate(19.600000, 801.330088)" stroke="#000000" stroke-width="0.5">
                <path d="M13.4327704,13.1896227 L3.33066907e-16,13.1896227 L13.4327704,13.1896227 Z" id="Shape"></path>
                <path d="M9.5952197,21.6948423 C8.23689877,21.6948423 7.00954074,22.236279 6.12,23.1124341 L4.79760988,23.1124341 L5.80165926,21.3816227 C6.38931358,21.5810646 7.01894321,21.6948423 7.67577284,21.6948423 L9.5952197,21.6948423 Z" id="Shape"></path>
                <path d="M17.270321,21.6948423 C18.6259556,21.6948423 19.8556642,22.236279 20.7445333,23.1124341 L22.0679309,23.1124341 L21.0635457,21.3816227 C20.474884,21.5810646 19.8465975,21.6948423 19.1894321,21.6948423 L17.270321,21.6948423 Z" id="Shape"></path>
                <polygon id="Shape" points="3.59778765 11.7723617 1.07926914 11.7723617 1.9181037 9.29141086 3.59778765 9.29141086"></polygon>
                <polygon id="Rectangle-path" points="1.9181037 8.46420672 5.2764642 8.46420672 5.2764642 9.29141086 1.9181037 9.29141086"></polygon>
                <path d="M23.5068444,1.61273386 L23.5068444,1.61273386 C22.577679,2.38601446 21.0763062,2.38601446 20.148484,1.61273386 L20.148484,1.61273386 C19.2206617,2.38601446 17.7189531,2.38601446 16.7911309,1.61273386 L16.7911309,1.61273386 C15.8633086,2.38601446 14.3605926,2.38601446 13.4327704,1.61273386 L13.4327704,19.804279 L26.8641975,19.804279 L26.8641975,1.61273386 C25.9363753,2.38629433 24.4350025,2.38629433 23.5068444,1.61273386 Z" id="Shape"></path>
                <path d="M13.4327704,-3.88578059e-16 L13.4327704,1.65440827 L13.4327704,-3.88578059e-16 Z" id="Shape"></path>
                <path d="M16.7911309,-3.88578059e-16 L16.7911309,1.65440827 L16.7911309,-3.88578059e-16 Z" id="Shape"></path>
                <path d="M20.148484,-3.88578059e-16 L20.148484,1.65440827 L20.148484,-3.88578059e-16 Z" id="Shape"></path>
                <path d="M3.33066907e-16,0.827534885 L26.8641975,0.827534885 L3.33066907e-16,0.827534885 Z" id="Shape"></path>
                <path d="M23.5068444,-3.88578059e-16 L23.5068444,1.65440827 L23.5068444,-3.88578059e-16 Z" id="Shape"></path>
                <path d="M16.7911309,1.65440827 L16.7911309,11.5768888 L16.7911309,1.65440827 Z" id="Shape"></path>
                <path d="M20.148484,4.09335401 L20.148484,14.0158346 L20.148484,4.09335401 Z" id="Shape"></path>
                <path d="M23.5068444,1.61273386 L23.5068444,19.804279 L23.5068444,1.61273386 Z" id="Shape"></path>
                <path d="M26.8641975,-3.88578059e-16 L26.8641975,1.65440827 L26.8641975,-3.88578059e-16 Z" id="Shape"></path>
                <path d="M13.4327704,11.7723617 L3.33066907e-16,11.7723617 L3.33066907e-16,13.1896227 C1.05979259,13.1896227 1.9181037,14.0353488 1.9181037,15.078863 L1.9181037,16.0248062 C1.9181037,19.1560103 4.49572346,21.6948423 7.67577284,21.6948423 L19.1890963,21.6948423 C20.8919506,21.6948423 22.4168296,20.9622325 23.471921,19.804279 L13.4327704,19.804279 L13.4327704,11.7723617 Z" id="Shape"></path>
            </g>
        </g>
    </g>
</svg>