<?xml version="1.0" encoding="UTF-8"?>
<svg width="72px" height="614px" viewBox="0 0 72 614" version="1.1" xmlns="http://www.w3.org/2000/svg" xmlns:xlink="http://www.w3.org/1999/xlink">
    <title>icons-sprite</title>
    <defs>
        <linearGradient x1="49.1385848%" y1="56.2836544%" x2="49.2261526%" y2="56.2836544%" id="linearGradient-1">
            <stop stop-color="#FFCC33" offset="0%"></stop>
            <stop stop-color="#FFFFFF" offset="100%"></stop>
        </linearGradient>
        <linearGradient x1="49.1385848%" y1="56.2836544%" x2="49.2261526%" y2="56.2836544%" id="linearGradient-2">
            <stop stop-color="#FFCC33" offset="0%"></stop>
            <stop stop-color="#FFFFFF" offset="100%"></stop>
        </linearGradient>
        <rect id="path-3" x="0" y="0" width="65" height="40" rx="6"></rect>
        <rect id="path-5" x="0" y="0" width="65" height="40" rx="6"></rect>
    </defs>
    <g id="Page-1" stroke="none" stroke-width="1" fill="none" fill-rule="evenodd">
        <g id="icons-sprite" transform="translate(0.000000, 1.000000)">
            <polygon id="Star" stroke="#F7B500" stroke-width="0.742857116" fill="#FFCC33" fill-rule="nonzero" points="20 12 15.297718 14.472136 16.1957739 9.236068 12.3915479 5.527864 17.648859 4.763932 20 0 22.351141 4.763932 27.6084521 5.527864 23.8042261 9.236068 24.702282 14.472136"></polygon>
            <polygon id="Star" stroke="#F7B500" stroke-width="0.742857116" fill="url(#linearGradient-1)" fill-rule="nonzero" points="20 44 15.297718 46.472136 16.1957739 41.236068 12.3915479 37.527864 17.648859 36.763932 20 32 22.351141 36.763932 27.6084521 37.527864 23.8042261 41.236068 24.702282 46.472136"></polygon>
            <polygon id="Star" stroke="#F7B500" stroke-width="0.742857116" fill="#FFFFFF" fill-rule="nonzero" points="20 76 15.297718 78.472136 16.1957739 73.236068 12.3915479 69.527864 17.648859 68.763932 20 64 22.351141 68.763932 27.6084521 69.527864 23.8042261 73.236068 24.702282 78.472136"></polygon>
            <path d="M20.0002419,96 L40,104.490098 C40,104.490098 38.6700854,136 20.0002419,136 C1.32991461,136 0,104.490098 0,104.490098 L19.9997581,96 L20.0002419,96 Z M18.8042237,106 L13.3333333,106 L13.3333333,126 L17.3144977,126 L17.3144977,118.325581 L19.4335046,118.325581 L23.9155251,126 L28.3333333,126 C27.4771647,124.686724 25.6364297,121.782056 22.8110731,117.28591 C23.9240923,116.766071 24.7845289,116.047884 25.3924087,115.131327 C26.0002884,114.21477 26.3042237,113.168269 26.3042237,111.991792 C26.3042237,109.976278 25.6920723,108.473785 24.4677511,107.484268 C23.24343,106.494751 21.3556064,106 18.8042237,106 L18.8042237,106 Z M18.5216895,109.474692 C19.8059425,109.474692 20.7541351,109.675329 21.3662957,110.076607 C21.9784563,110.477886 22.284532,111.152754 22.284532,112.101231 C22.284532,113.058828 21.9848774,113.761056 21.3855594,114.207934 C20.7862413,114.654813 19.8573122,114.878249 18.5987443,114.878249 L18.5987443,114.878249 L17.3144977,114.878249 L17.3144977,109.474692 L18.5216895,109.474692 Z" id="Combined-Shape" fill="#1BB814" fill-rule="nonzero"></path>
            <path d="M15.2178915,159.924511 C16.4980172,162.440177 18.5601086,164.493123 21.0757744,165.782109 L23.03126,163.826337 C23.2707656,163.586546 23.6268801,163.506806 23.9375514,163.612554 C24.9333,163.94266 26.0087885,164.120146 27.1111429,164.120146 C27.5998714,164.120146 28,164.519703 28,165.008717 L28,168.111429 C28,168.599871 27.5998714,169 27.1111429,169 C18.76446,169 12,162.236112 12,153.888857 C12,153.400129 12.4001286,153 12.8891429,153 L15.9998571,153 C16.4888714,153 16.889,153.400129 16.889,153.888857 C16.889,155.000071 17.0667715,156.066986 17.3954485,157.062163 C17.49348,157.37312 17.4223143,157.720089 17.1733772,157.96874 L15.2178915,159.924511 Z" id="Fill-1" fill="#FFFFFF" fill-rule="nonzero" transform="translate(20.000000, 161.000000) rotate(5.000000) translate(-20.000000, -161.000000) "></path>
            <path d="M27.5198124,200.877457 C27.8571248,200.459222 28.0188971,200.010874 27.9982453,199.549143 C27.9775935,199.040569 27.74354,198.642409 27.5507901,198.39816 C27.7745177,197.856127 27.8605668,197.002928 27.1136607,196.340443 C26.5663886,195.855291 25.6370585,195.637808 24.3497642,195.698034 C23.4445279,195.738185 22.687296,195.902133 22.6563183,195.908825 L22.6528763,195.908825 C22.4807782,195.938938 22.2983541,195.975742 22.1124881,196.015893 C22.0987202,195.801757 22.1365818,195.269762 22.5427335,194.071936 C23.0246084,192.646591 22.9970727,191.555834 22.4532425,190.826432 C21.8818766,190.060226 20.9697563,190 20.7012832,190 C20.4431359,190 20.2056404,190.103722 20.0369842,190.294437 C19.6549263,190.726056 19.6996718,191.522376 19.7478593,191.890422 C19.2935202,193.074864 18.0199938,195.979088 16.9426593,196.785445 C16.9220075,196.798829 16.9047977,196.815558 16.8875878,196.832288 C16.5709272,197.156838 16.3575255,197.508156 16.212963,197.815977 C16.0098872,197.708908 15.7792757,197.648683 15.5314543,197.648683 L13.4318567,197.648683 C12.6402052,197.648683 12,198.274362 12,199.040569 L12,204.477624 C12,205.247177 12.6436471,205.869511 13.4318567,205.869511 L15.5314543,205.869511 C15.8377891,205.869511 16.123472,205.775826 16.3575255,205.615224 L17.1663869,205.708908 C17.2902976,205.725638 19.493154,205.996654 21.7545239,205.953158 C22.1641175,205.983271 22.5496174,206 22.9075816,206 C23.523693,206 24.0606393,205.953158 24.5080945,205.859473 C25.5613353,205.641991 26.2807056,205.207026 26.6455537,204.567963 C26.9243528,204.079465 26.9243528,203.594312 26.8796072,203.286491 C27.5645579,202.684233 27.6850266,202.018402 27.6609329,201.549979 C27.647165,201.278963 27.5852097,201.048097 27.5198124,200.877457 Z M13.4318567,204.966123 C13.1530577,204.966123 12.9293301,204.745295 12.9293301,204.477624 L12.9293301,199.037223 C12.9293301,198.766207 13.1564997,198.548724 13.4318567,198.548724 L15.5314543,198.548724 C15.8102533,198.548724 16.033981,198.769552 16.033981,199.037223 L16.033981,204.474279 C16.033981,204.745295 15.8068114,204.962777 15.5314543,204.962777 L13.4318567,204.962777 L13.4318567,204.966123 Z M26.6386698,200.485989 C26.4941073,200.633208 26.4665716,200.857382 26.5767145,201.031368 C26.5767145,201.034714 26.717835,201.268925 26.7350448,201.59013 C26.7591385,202.02844 26.5422948,202.416562 26.0879557,202.747804 C25.9261834,202.868256 25.8607861,203.075701 25.9296254,203.26307 C25.9296254,203.266416 26.0776298,203.708072 25.8366924,204.126307 C25.6060808,204.527813 25.0932283,204.815558 24.3153446,204.976161 C23.6923492,205.10665 22.8456263,205.130071 21.8061534,205.04977 C21.7923855,205.04977 21.7751757,205.04977 21.7579659,205.04977 C19.5447835,205.096612 17.3075074,204.815558 17.2834136,204.812212 L17.2799717,204.812212 L16.9323334,204.772062 C16.9529852,204.678377 16.963311,204.578001 16.963311,204.477624 L16.963311,199.037223 C16.963311,198.89335 16.9392173,198.752823 16.8979137,198.622334 C16.9598691,198.39816 17.1319672,197.899624 17.5381189,197.474697 C19.0835604,196.283563 20.5945823,192.265161 20.6599796,192.091175 C20.6875153,192.020912 20.6943992,191.943957 20.6806314,191.867001 C20.622118,191.492263 20.6427698,191.033877 20.7253769,190.896696 C20.907801,190.900042 21.4000017,190.95023 21.6960105,191.34839 C22.0470908,191.820159 22.0333229,192.663321 21.654707,193.780845 C21.0764572,195.483898 21.0282697,196.380594 21.4860508,196.775408 C21.7132204,196.972815 22.0161131,196.982852 22.2363988,196.905897 C22.4463585,196.859055 22.6459924,196.818904 22.8353004,196.788791 C22.8490682,196.785445 22.8662781,196.7821 22.8800459,196.778754 C23.9367286,196.55458 25.8298084,196.417399 26.4872234,196.999582 C27.0448215,197.494772 26.6489957,198.150565 26.6042502,198.220828 C26.4768975,198.408197 26.5147591,198.652447 26.6868573,198.803011 C26.6902993,198.806357 27.0517054,199.137599 27.0689152,199.582601 C27.0826831,199.880385 26.9381206,200.18486 26.6386698,200.485989 Z" id="Shape" fill="#1BB814" fill-rule="nonzero"></path>
            <path d="M27.5198124,236.877457 C27.8571248,236.459222 28.0188971,236.010874 27.9982453,235.549143 C27.9775935,235.040569 27.74354,234.642409 27.5507901,234.39816 C27.7745177,233.856127 27.8605668,233.002928 27.1136607,232.340443 C26.5663886,231.855291 25.6370585,231.637808 24.3497642,231.698034 C23.4445279,231.738185 22.687296,231.902133 22.6563183,231.908825 L22.6528763,231.908825 C22.4807782,231.938938 22.2983541,231.975742 22.1124881,232.015893 C22.0987202,231.801757 22.1365818,231.269762 22.5427335,230.071936 C23.0246084,228.646591 22.9970727,227.555834 22.4532425,226.826432 C21.8818766,226.060226 20.9697563,226 20.7012832,226 C20.4431359,226 20.2056404,226.103722 20.0369842,226.294437 C19.6549263,226.726056 19.6996718,227.522376 19.7478593,227.890422 C19.2935202,229.074864 18.0199938,231.979088 16.9426593,232.785445 C16.9220075,232.798829 16.9047977,232.815558 16.8875878,232.832288 C16.5709272,233.156838 16.3575255,233.508156 16.212963,233.815977 C16.0098872,233.708908 15.7792757,233.648683 15.5314543,233.648683 L13.4318567,233.648683 C12.6402052,233.648683 12,234.274362 12,235.040569 L12,240.477624 C12,241.247177 12.6436471,241.869511 13.4318567,241.869511 L15.5314543,241.869511 C15.8377891,241.869511 16.123472,241.775826 16.3575255,241.615224 L17.1663869,241.708908 C17.2902976,241.725638 19.493154,241.996654 21.7545239,241.953158 C22.1641175,241.983271 22.5496174,242 22.9075816,242 C23.523693,242 24.0606393,241.953158 24.5080945,241.859473 C25.5613353,241.641991 26.2807056,241.207026 26.6455537,240.567963 C26.9243528,240.079465 26.9243528,239.594312 26.8796072,239.286491 C27.5645579,238.684233 27.6850266,238.018402 27.6609329,237.549979 C27.647165,237.278963 27.5852097,237.048097 27.5198124,236.877457 Z M13.4318567,240.966123 C13.1530577,240.966123 12.9293301,240.745295 12.9293301,240.477624 L12.9293301,235.037223 C12.9293301,234.766207 13.1564997,234.548724 13.4318567,234.548724 L15.5314543,234.548724 C15.8102533,234.548724 16.033981,234.769552 16.033981,235.037223 L16.033981,240.474279 C16.033981,240.745295 15.8068114,240.962777 15.5314543,240.962777 L13.4318567,240.962777 L13.4318567,240.966123 Z M26.6386698,236.485989 C26.4941073,236.633208 26.4665716,236.857382 26.5767145,237.031368 C26.5767145,237.034714 26.717835,237.268925 26.7350448,237.59013 C26.7591385,238.02844 26.5422948,238.416562 26.0879557,238.747804 C25.9261834,238.868256 25.8607861,239.075701 25.9296254,239.26307 C25.9296254,239.266416 26.0776298,239.708072 25.8366924,240.126307 C25.6060808,240.527813 25.0932283,240.815558 24.3153446,240.976161 C23.6923492,241.10665 22.8456263,241.130071 21.8061534,241.04977 C21.7923855,241.04977 21.7751757,241.04977 21.7579659,241.04977 C19.5447835,241.096612 17.3075074,240.815558 17.2834136,240.812212 L17.2799717,240.812212 L16.9323334,240.772062 C16.9529852,240.678377 16.963311,240.578001 16.963311,240.477624 L16.963311,235.037223 C16.963311,234.89335 16.9392173,234.752823 16.8979137,234.622334 C16.9598691,234.39816 17.1319672,233.899624 17.5381189,233.474697 C19.0835604,232.283563 20.5945823,228.265161 20.6599796,228.091175 C20.6875153,228.020912 20.6943992,227.943957 20.6806314,227.867001 C20.622118,227.492263 20.6427698,227.033877 20.7253769,226.896696 C20.907801,226.900042 21.4000017,226.95023 21.6960105,227.34839 C22.0470908,227.820159 22.0333229,228.663321 21.654707,229.780845 C21.0764572,231.483898 21.0282697,232.380594 21.4860508,232.775408 C21.7132204,232.972815 22.0161131,232.982852 22.2363988,232.905897 C22.4463585,232.859055 22.6459924,232.818904 22.8353004,232.788791 C22.8490682,232.785445 22.8662781,232.7821 22.8800459,232.778754 C23.9367286,232.55458 25.8298084,232.417399 26.4872234,232.999582 C27.0448215,233.494772 26.6489957,234.150565 26.6042502,234.220828 C26.4768975,234.408197 26.5147591,234.652447 26.6868573,234.803011 C26.6902993,234.806357 27.0517054,235.137599 27.0689152,235.582601 C27.0826831,235.880385 26.9381206,236.18486 26.6386698,236.485989 Z" id="Shape" fill="#D8232A" fill-rule="nonzero" transform="translate(20.000000, 234.000000) scale(-1, 1) rotate(-180.000000) translate(-20.000000, -234.000000) "></path>
            <path d="M27.5198124,407.877457 C27.8571248,407.459222 28.0188971,407.010874 27.9982453,406.549143 C27.9775935,406.040569 27.74354,405.642409 27.5507901,405.39816 C27.7745177,404.856127 27.8605668,404.002928 27.1136607,403.340443 C26.5663886,402.855291 25.6370585,402.637808 24.3497642,402.698034 C23.4445279,402.738185 22.687296,402.902133 22.6563183,402.908825 L22.6528763,402.908825 C22.4807782,402.938938 22.2983541,402.975742 22.1124881,403.015893 C22.0987202,402.801757 22.1365818,402.269762 22.5427335,401.071936 C23.0246084,399.646591 22.9970727,398.555834 22.4532425,397.826432 C21.8818766,397.060226 20.9697563,397 20.7012832,397 C20.4431359,397 20.2056404,397.103722 20.0369842,397.294437 C19.6549263,397.726056 19.6996718,398.522376 19.7478593,398.890422 C19.2935202,400.074864 18.0199938,402.979088 16.9426593,403.785445 C16.9220075,403.798829 16.9047977,403.815558 16.8875878,403.832288 C16.5709272,404.156838 16.3575255,404.508156 16.212963,404.815977 C16.0098872,404.708908 15.7792757,404.648683 15.5314543,404.648683 L13.4318567,404.648683 C12.6402052,404.648683 12,405.274362 12,406.040569 L12,411.477624 C12,412.247177 12.6436471,412.869511 13.4318567,412.869511 L15.5314543,412.869511 C15.8377891,412.869511 16.123472,412.775826 16.3575255,412.615224 L17.1663869,412.708908 C17.2902976,412.725638 19.493154,412.996654 21.7545239,412.953158 C22.1641175,412.983271 22.5496174,413 22.9075816,413 C23.523693,413 24.0606393,412.953158 24.5080945,412.859473 C25.5613353,412.641991 26.2807056,412.207026 26.6455537,411.567963 C26.9243528,411.079465 26.9243528,410.594312 26.8796072,410.286491 C27.5645579,409.684233 27.6850266,409.018402 27.6609329,408.549979 C27.647165,408.278963 27.5852097,408.048097 27.5198124,407.877457 Z M13.4318567,411.966123 C13.1530577,411.966123 12.9293301,411.745295 12.9293301,411.477624 L12.9293301,406.037223 C12.9293301,405.766207 13.1564997,405.548724 13.4318567,405.548724 L15.5314543,405.548724 C15.8102533,405.548724 16.033981,405.769552 16.033981,406.037223 L16.033981,411.474279 C16.033981,411.745295 15.8068114,411.962777 15.5314543,411.962777 L13.4318567,411.962777 L13.4318567,411.966123 Z M26.6386698,407.485989 C26.4941073,407.633208 26.4665716,407.857382 26.5767145,408.031368 C26.5767145,408.034714 26.717835,408.268925 26.7350448,408.59013 C26.7591385,409.02844 26.5422948,409.416562 26.0879557,409.747804 C25.9261834,409.868256 25.8607861,410.075701 25.9296254,410.26307 C25.9296254,410.266416 26.0776298,410.708072 25.8366924,411.126307 C25.6060808,411.527813 25.0932283,411.815558 24.3153446,411.976161 C23.6923492,412.10665 22.8456263,412.130071 21.8061534,412.04977 C21.7923855,412.04977 21.7751757,412.04977 21.7579659,412.04977 C19.5447835,412.096612 17.3075074,411.815558 17.2834136,411.812212 L17.2799717,411.812212 L16.9323334,411.772062 C16.9529852,411.678377 16.963311,411.578001 16.963311,411.477624 L16.963311,406.037223 C16.963311,405.89335 16.9392173,405.752823 16.8979137,405.622334 C16.9598691,405.39816 17.1319672,404.899624 17.5381189,404.474697 C19.0835604,403.283563 20.5945823,399.265161 20.6599796,399.091175 C20.6875153,399.020912 20.6943992,398.943957 20.6806314,398.867001 C20.622118,398.492263 20.6427698,398.033877 20.7253769,397.896696 C20.907801,397.900042 21.4000017,397.95023 21.6960105,398.34839 C22.0470908,398.820159 22.0333229,399.663321 21.654707,400.780845 C21.0764572,402.483898 21.0282697,403.380594 21.4860508,403.775408 C21.7132204,403.972815 22.0161131,403.982852 22.2363988,403.905897 C22.4463585,403.859055 22.6459924,403.818904 22.8353004,403.788791 C22.8490682,403.785445 22.8662781,403.7821 22.8800459,403.778754 C23.9367286,403.55458 25.8298084,403.417399 26.4872234,403.999582 C27.0448215,404.494772 26.6489957,405.150565 26.6042502,405.220828 C26.4768975,405.408197 26.5147591,405.652447 26.6868573,405.803011 C26.6902993,405.806357 27.0517054,406.137599 27.0689152,406.582601 C27.0826831,406.880385 26.9381206,407.18486 26.6386698,407.485989 Z" id="Shape" fill="#606060" fill-rule="nonzero"></path>
            <path d="M27.5198124,443.877457 C27.8571248,443.459222 28.0188971,443.010874 27.9982453,442.549143 C27.9775935,442.040569 27.74354,441.642409 27.5507901,441.39816 C27.7745177,440.856127 27.8605668,440.002928 27.1136607,439.340443 C26.5663886,438.855291 25.6370585,438.637808 24.3497642,438.698034 C23.4445279,438.738185 22.687296,438.902133 22.6563183,438.908825 L22.6528763,438.908825 C22.4807782,438.938938 22.2983541,438.975742 22.1124881,439.015893 C22.0987202,438.801757 22.1365818,438.269762 22.5427335,437.071936 C23.0246084,435.646591 22.9970727,434.555834 22.4532425,433.826432 C21.8818766,433.060226 20.9697563,433 20.7012832,433 C20.4431359,433 20.2056404,433.103722 20.0369842,433.294437 C19.6549263,433.726056 19.6996718,434.522376 19.7478593,434.890422 C19.2935202,436.074864 18.0199938,438.979088 16.9426593,439.785445 C16.9220075,439.798829 16.9047977,439.815558 16.8875878,439.832288 C16.5709272,440.156838 16.3575255,440.508156 16.212963,440.815977 C16.0098872,440.708908 15.7792757,440.648683 15.5314543,440.648683 L13.4318567,440.648683 C12.6402052,440.648683 12,441.274362 12,442.040569 L12,447.477624 C12,448.247177 12.6436471,448.869511 13.4318567,448.869511 L15.5314543,448.869511 C15.8377891,448.869511 16.123472,448.775826 16.3575255,448.615224 L17.1663869,448.708908 C17.2902976,448.725638 19.493154,448.996654 21.7545239,448.953158 C22.1641175,448.983271 22.5496174,449 22.9075816,449 C23.523693,449 24.0606393,448.953158 24.5080945,448.859473 C25.5613353,448.641991 26.2807056,448.207026 26.6455537,447.567963 C26.9243528,447.079465 26.9243528,446.594312 26.8796072,446.286491 C27.5645579,445.684233 27.6850266,445.018402 27.6609329,444.549979 C27.647165,444.278963 27.5852097,444.048097 27.5198124,443.877457 Z M13.4318567,447.966123 C13.1530577,447.966123 12.9293301,447.745295 12.9293301,447.477624 L12.9293301,442.037223 C12.9293301,441.766207 13.1564997,441.548724 13.4318567,441.548724 L15.5314543,441.548724 C15.8102533,441.548724 16.033981,441.769552 16.033981,442.037223 L16.033981,447.474279 C16.033981,447.745295 15.8068114,447.962777 15.5314543,447.962777 L13.4318567,447.962777 L13.4318567,447.966123 Z M26.6386698,443.485989 C26.4941073,443.633208 26.4665716,443.857382 26.5767145,444.031368 C26.5767145,444.034714 26.717835,444.268925 26.7350448,444.59013 C26.7591385,445.02844 26.5422948,445.416562 26.0879557,445.747804 C25.9261834,445.868256 25.8607861,446.075701 25.9296254,446.26307 C25.9296254,446.266416 26.0776298,446.708072 25.8366924,447.126307 C25.6060808,447.527813 25.0932283,447.815558 24.3153446,447.976161 C23.6923492,448.10665 22.8456263,448.130071 21.8061534,448.04977 C21.7923855,448.04977 21.7751757,448.04977 21.7579659,448.04977 C19.5447835,448.096612 17.3075074,447.815558 17.2834136,447.812212 L17.2799717,447.812212 L16.9323334,447.772062 C16.9529852,447.678377 16.963311,447.578001 16.963311,447.477624 L16.963311,442.037223 C16.963311,441.89335 16.9392173,441.752823 16.8979137,441.622334 C16.9598691,441.39816 17.1319672,440.899624 17.5381189,440.474697 C19.0835604,439.283563 20.5945823,435.265161 20.6599796,435.091175 C20.6875153,435.020912 20.6943992,434.943957 20.6806314,434.867001 C20.622118,434.492263 20.6427698,434.033877 20.7253769,433.896696 C20.907801,433.900042 21.4000017,433.95023 21.6960105,434.34839 C22.0470908,434.820159 22.0333229,435.663321 21.654707,436.780845 C21.0764572,438.483898 21.0282697,439.380594 21.4860508,439.775408 C21.7132204,439.972815 22.0161131,439.982852 22.2363988,439.905897 C22.4463585,439.859055 22.6459924,439.818904 22.8353004,439.788791 C22.8490682,439.785445 22.8662781,439.7821 22.8800459,439.778754 C23.9367286,439.55458 25.8298084,439.417399 26.4872234,439.999582 C27.0448215,440.494772 26.6489957,441.150565 26.6042502,441.220828 C26.4768975,441.408197 26.5147591,441.652447 26.6868573,441.803011 C26.6902993,441.806357 27.0517054,442.137599 27.0689152,442.582601 C27.0826831,442.880385 26.9381206,443.18486 26.6386698,443.485989 Z" id="Shape" fill="#606060" fill-rule="nonzero" transform="translate(20.000000, 441.000000) scale(-1, 1) rotate(-180.000000) translate(-20.000000, -441.000000) "></path>
            <g id="brochure" transform="translate(5.000000, 258.000000)" fill-rule="nonzero">
                <path d="M2.82352941,27.93441 L27.1764706,27.93441 C28.7358628,27.93441 30,26.6702728 30,25.1108806 L30,2.88911941 C30,1.32972718 28.7358628,0.06559 27.1764706,0.06559 L2.82352941,0.06559 C1.26413718,0.06559 0,1.32972718 0,2.88911941 L0,25.1108806 C0,26.6702728 1.26413718,27.93441 2.82352941,27.93441 Z M3.19304982,1.1375 L26.8070204,1.1375 C27.9765646,1.1375 28.9246675,2.08560288 28.9246675,3.25514706 L28.9246675,24.7448529 C28.9246675,25.9143971 27.9765646,26.8625 26.8070204,26.8625 L3.19304982,26.8625 C2.02350564,26.8625 1.07540276,25.9143971 1.07540276,24.7448529 L1.07540276,3.25514706 C1.07540276,2.08560288 2.02350564,1.1375 3.19304982,1.1375 Z" id="Shape" fill="#303030"></path>
                <polygon id="Path" fill="#000000" points="7.00462005 8.40021 6.29889796 7.69678 5.53853842 8.45467 7.04661645 9.95778 9.91669808 6.77985 9.11644898 6.06179"></polygon>
                <rect id="Rectangle" fill="#303030" x="12.7426765" y="6.42082" width="7.05882353" height="1.07191" rx="0.535955"></rect>
                <rect id="Rectangle" fill="#303030" x="12.7426765" y="8.56457" width="11.4705882" height="1.07191" rx="0.535955"></rect>
                <rect id="Rectangle" fill="#303030" x="12.7426765" y="12.41037" width="7.05882353" height="1.07191" rx="0.535955"></rect>
                <rect id="Rectangle" fill="#303030" x="12.7426765" y="14.55412" width="11.4705882" height="1.07191" rx="0.535955"></rect>
                <rect id="Rectangle" fill="#303030" x="12.7426765" y="18.4009" width="7.05882353" height="1.07191" rx="0.535955"></rect>
                <rect id="Rectangle" fill="#303030" x="12.7426765" y="20.54465" width="11.4705882" height="1.07191" rx="0.535955"></rect>
                <path d="M7.4267611,11.87438 C6.24110024,11.87438 5.27602581,12.83632 5.27602581,14.01813 C5.27602581,15.19994 6.24110024,16.16188 7.4267611,16.16188 C8.61242197,16.16188 9.5774964,15.19994 9.5774964,14.01813 C9.5774964,12.83639 8.61242197,11.87438 7.4267611,11.87438 Z M7.4267611,15.09004 C6.83340396,15.09004 6.35135834,14.60956 6.35135834,14.01813 C6.35135834,13.4267 6.83340396,12.94622 7.4267611,12.94622 C8.02011825,12.94622 8.50216387,13.4267 8.50216387,14.01813 C8.50209364,14.60956 8.02011825,15.09004 7.4267611,15.09004 Z" id="Shape" fill="#D8232A"></path>
                <path d="M7.4267611,17.86498 C6.24110024,17.86498 5.27602581,18.82692 5.27602581,20.00873 C5.27602581,21.19054 6.24110024,22.15248 7.4267611,22.15248 C8.61242197,22.15248 9.5774964,21.19054 9.5774964,20.00873 C9.5774964,18.82692 8.61242197,17.86498 7.4267611,17.86498 Z M7.4267611,21.08057 C6.83340396,21.08057 6.35135834,20.60009 6.35135834,20.00866 C6.35135834,19.41723 6.83340396,18.93675 7.4267611,18.93675 C8.02011825,18.93675 8.50216387,19.41723 8.50216387,20.00866 C8.50216387,20.60009 8.02011825,21.08057 7.4267611,21.08057 Z" id="Shape" fill="#000000"></path>
            </g>
            <polygon id="Star" stroke="#F7B500" stroke-width="0.742857116" fill="#FFCC33" fill-rule="nonzero" points="22 306.839262 20.1894045 310.507929 16.1407899 311.096227 19.070395 313.951886 18.378809 317.984142 22 316.080369 25.621191 317.984142 24.929605 313.951886 27.8592101 311.096227 23.8105955 310.507929"></polygon>
            <polygon id="Star" stroke="#F7B500" stroke-width="0.742857116" fill="url(#linearGradient-2)" fill-rule="nonzero" points="22.2026044 345.242353 18.5809252 347.146382 19.2726044 343.113583 16.3426044 340.257539 20.3917648 339.669162 22.2026044 336 24.013444 339.669162 28.0626044 340.257539 25.1326044 343.113583 25.8242836 347.146382"></polygon>
            <polygon id="Star" stroke="#F7B500" stroke-width="0.742857116" fill="#FFFFFF" fill-rule="nonzero" points="22 365.839262 20.1894045 369.507929 16.1407899 370.096227 19.070395 372.951886 18.378809 376.984142 22 375.080369 25.621191 376.984142 24.929605 372.951886 27.8592101 370.096227 23.8105955 369.507929"></polygon>
            <g id="balcony" transform="translate(7.000000, 513.000000)" stroke="#000000" stroke-width="0.5">
                <g id="Group-21" transform="translate(0.000000, 13.600000)">
                    <line x1="2.08510638" y1="1.57777778" x2="2.08510638" y2="10.8222222" id="Line"></line>
                    <line x1="4.46808511" y1="1.57777778" x2="4.46808511" y2="10.8222222" id="Line"></line>
                    <line x1="6.85106383" y1="1.57777778" x2="6.85106383" y2="10.8222222" id="Line"></line>
                    <line x1="9.23404255" y1="1.57777778" x2="9.23404255" y2="10.8222222" id="Line"></line>
                    <line x1="11.6170213" y1="1.57777778" x2="11.6170213" y2="10.8222222" id="Line"></line>
                    <line x1="14" y1="1.57777778" x2="14" y2="10.8222222" id="Line"></line>
                    <line x1="16.3829787" y1="1.57777778" x2="16.3829787" y2="10.8222222" id="Line"></line>
                    <line x1="18.7659574" y1="1.57777778" x2="18.7659574" y2="10.8222222" id="Line"></line>
                    <line x1="21.1489362" y1="1.57777778" x2="21.1489362" y2="10.8222222" id="Line"></line>
                    <line x1="23.5319149" y1="1.57777778" x2="23.5319149" y2="10.8222222" id="Line"></line>
                    <line x1="25.9148936" y1="1.57777778" x2="25.9148936" y2="10.8222222" id="Line"></line>
                    <line x1="1.19148936" y1="10.8799993" x2="27.4042553" y2="10.7644451" id="Line"></line>
                    <line x1="0" y1="1.28888889" x2="28" y2="1.28888889" id="Line"></line>
                </g>
                <line x1="5.6" y1="1.4" x2="22.4" y2="1.4" id="Line"></line>
                <line x1="6" y1="1.8" x2="6" y2="14.6" id="Line"></line>
                <line x1="14.8" y1="1.8" x2="14.8" y2="14.6" id="Line"></line>
                <line x1="22" y1="1.8" x2="22" y2="14.6" id="Line"></line>
            </g>
            <g id="Group" transform="translate(7.000000, 559.000000)">
                <rect id="Rectangle" fill="#D8D8D8" fill-rule="nonzero" x="0" y="14" width="65" height="40" rx="6"></rect>
                <path d="M11,0 L55,0 C58.3137,0 61,2.6863 61,6 L61,20.589 L39.715,34 L24.098,34 L5,20.049 L5,6 C5,2.6863 7.6863,0 11,0 Z" id="Path" fill="#2CB700" fill-rule="nonzero"></path>
                <g transform="translate(0.000000, 14.000000)">
                    <g id="a-link" fill="#D8D8D8" fill-rule="nonzero">
                        <rect id="a" x="0" y="0" width="65" height="40" rx="6"></rect>
                    </g>
                    <g id="Clipped">
                        <mask id="mask-4" fill="white">
                            <use xlink:href="#path-3"></use>
                        </mask>
                        <g id="a"></g>
                        <path d="M11,-14 L55,-14 C58.3137,-14 61,-11.3137 61,-8 L61,6.589 L39.715,20 L24.098,20 L5,6.049 L5,-8 C5,-11.3137 7.6863,-14 11,-14 Z" id="Path" fill="#2CB700" fill-rule="nonzero" mask="url(#mask-4)"></path>
                    </g>
                    <g id="Clipped">
                        <mask id="mask-6" fill="white">
                            <use xlink:href="#path-5"></use>
                        </mask>
                        <g id="a"></g>
                        <path d="M31.601,16.9998 C36.2246,16.9998 46.026,23.4964 61.005,36.489 C61.8394,37.21277 61.92909,38.4759 61.20532,39.3103 C60.82545,39.74824 60.27424,39.9998 59.69452,39.9998 L0.00052,39.9998 C16.04452,24.6668 26.57852,16.9998 31.60152,16.9998 L31.601,16.9998 Z" id="Path" fill="#EAEAEA" fill-rule="nonzero" mask="url(#mask-6)"></path>
                    </g>
                </g>
                <path d="M24.707,15.018 C24.31648,14.62748 23.6833,14.62748 23.2928,15.018 C22.9023,15.40852 22.90228,16.0417 23.2928,16.4322 L29.9721,23.1115 L43.3761,9.7075 C43.76662,9.31698 43.76662,8.6838 43.3761,8.2933 C42.98558,7.9028 42.3524,7.90278 41.9619,8.2933 L29.9719,20.2833 L24.7068,15.0182 L24.707,15.018 Z" id="Path" fill="#FFFFFF" fill-rule="nonzero"></path>
            </g>
            <g id="bath" transform="translate(7.000000, 469.000000)" stroke="#000000" stroke-width="0.5">
                <path d="M14.0327704,13.5197106 L0.6,13.5197106 L14.0327704,13.5197106 Z" id="Shape"></path>
                <path d="M10.1952197,22.0249302 C8.83689877,22.0249302 7.60954074,22.5663669 6.72,23.442522 L5.39760988,23.442522 L6.40165926,21.7117106 C6.98931358,21.9111525 7.61894321,22.0249302 8.27577284,22.0249302 L10.1952197,22.0249302 Z" id="Shape"></path>
                <path d="M17.870321,22.0249302 C19.2259556,22.0249302 20.4556642,22.5663669 21.3445333,23.442522 L22.6679309,23.442522 L21.6635457,21.7117106 C21.074884,21.9111525 20.4465975,22.0249302 19.7894321,22.0249302 L17.870321,22.0249302 Z" id="Shape"></path>
                <polygon id="Shape" points="4.19778765 12.1024496 1.67926914 12.1024496 2.5181037 9.62149871 4.19778765 9.62149871"></polygon>
                <polygon id="Rectangle-path" points="2.5181037 8.79429457 5.8764642 8.79429457 5.8764642 9.62149871 2.5181037 9.62149871"></polygon>
                <path d="M24.1068444,1.94282171 L24.1068444,1.94282171 C23.177679,2.71610231 21.6763062,2.71610231 20.748484,1.94282171 L20.748484,1.94282171 C19.8206617,2.71610231 18.3189531,2.71610231 17.3911309,1.94282171 L17.3911309,1.94282171 C16.4633086,2.71610231 14.9605926,2.71610231 14.0327704,1.94282171 L14.0327704,20.1343669 L27.4641975,20.1343669 L27.4641975,1.94282171 C26.5363753,2.71638218 25.0350025,2.71638218 24.1068444,1.94282171 Z" id="Shape"></path>
                <path d="M14.0327704,0.330087855 L14.0327704,1.98449612 L14.0327704,0.330087855 Z" id="Shape"></path>
                <path d="M17.3911309,0.330087855 L17.3911309,1.98449612 L17.3911309,0.330087855 Z" id="Shape"></path>
                <path d="M20.748484,0.330087855 L20.748484,1.98449612 L20.748484,0.330087855 Z" id="Shape"></path>
                <path d="M0.6,1.15762274 L27.4641975,1.15762274 L0.6,1.15762274 Z" id="Shape"></path>
                <path d="M24.1068444,0.330087855 L24.1068444,1.98449612 L24.1068444,0.330087855 Z" id="Shape"></path>
                <path d="M17.3911309,1.98449612 L17.3911309,11.9069767 L17.3911309,1.98449612 Z" id="Shape"></path>
                <path d="M20.748484,4.42344186 L20.748484,14.3459225 L20.748484,4.42344186 Z" id="Shape"></path>
                <path d="M24.1068444,1.94282171 L24.1068444,20.1343669 L24.1068444,1.94282171 Z" id="Shape"></path>
                <path d="M27.4641975,0.330087855 L27.4641975,1.98449612 L27.4641975,0.330087855 Z" id="Shape"></path>
                <path d="M14.0327704,12.1024496 L0.6,12.1024496 L0.6,13.5197106 C1.65979259,13.5197106 2.5181037,14.3654367 2.5181037,15.4089509 L2.5181037,16.3548941 C2.5181037,19.4860982 5.09572346,22.0249302 8.27577284,22.0249302 L19.7890963,22.0249302 C21.4919506,22.0249302 23.0168296,21.2923204 24.071921,20.1343669 L14.0327704,20.1343669 L14.0327704,12.1024496 Z" id="Shape"></path>
            </g>
        </g>
    </g>
</svg>